<svg xmlns="http://www.w3.org/2000/svg" xmlns:xlink="http://www.w3.org/1999/xlink" width="500" zoomAndPan="magnify" viewBox="0 0 375 374.999991" height="500" preserveAspectRatio="xMidYMid meet" version="1.0"><defs><filter x="0%" y="0%" width="100%" height="100%" id="1cfb881ba9"><feColorMatrix values="0 0 0 0 1 0 0 0 0 1 0 0 0 0 1 0 0 0 1 0" color-interpolation-filters="sRGB"/></filter><g/><clipPath id="cc7b410784"><path d="M 49.515625 8.492188 L 208 8.492188 L 208 309.992188 L 49.515625 309.992188 Z M 49.515625 8.492188 " clip-rule="nonzero"/></clipPath><mask id="91acb2eea2"><g filter="url(#1cfb881ba9)"><rect x="-37.5" width="450" fill="#000000" y="-37.499999" height="449.999989" fill-opacity="0.3"/></g></mask><clipPath id="339f42c9c2"><path d="M 0.515625 0.492188 L 158.601562 0.492188 L 158.601562 301.839844 L 0.515625 301.839844 Z M 0.515625 0.492188 " clip-rule="nonzero"/></clipPath><clipPath id="331e60eedc"><rect x="0" width="159" y="0" height="302"/></clipPath><mask id="5b5c4c45e2"><g filter="url(#1cfb881ba9)"><rect x="-37.5" width="450" fill="#000000" y="-37.499999" height="449.999989" fill-opacity="0.2"/></g></mask><clipPath id="26ef30c040"><path d="M 1 0.160156 L 141.839844 0.160156 L 141.839844 272.558594 L 1 272.558594 Z M 1 0.160156 " clip-rule="nonzero"/></clipPath><clipPath id="14155105bb"><rect x="0" width="142" y="0" height="273"/></clipPath><clipPath id="5166c69bf6"><path d="M 163 18 L 325.515625 18 L 325.515625 298 L 163 298 Z M 163 18 " clip-rule="nonzero"/></clipPath><clipPath id="5bb5ee4aac"><path d="M 49.515625 8.492188 L 205 8.492188 L 205 309.992188 L 49.515625 309.992188 Z M 49.515625 8.492188 " clip-rule="nonzero"/></clipPath></defs><rect x="-37.5" width="450" fill="#ffffff" y="-37.499999" height="449.999989" fill-opacity="1"/><rect x="-37.5" width="450" fill="#90adc6" y="-37.499999" height="449.999989" fill-opacity="1"/><g clip-path="url(#cc7b410784)"><g mask="url(#91acb2eea2)"><g transform="matrix(1, 0, 0, 1, 49, 8)"><g clip-path="url(#331e60eedc)"><g clip-path="url(#339f42c9c2)"><path fill="#fad02c" d="M 139.335938 203.363281 C 140.949219 205.863281 142.347656 208.667969 143.515625 211.777344 C 148.089844 223.964844 147.585938 236.417969 147.441406 238.789062 C 146.96875 246.382812 145.15625 257.320312 139.183594 266.285156 C 138.574219 267.203125 137.933594 268.074219 137.265625 268.898438 C 137.363281 269.101562 137.457031 269.316406 137.554688 269.542969 C 137.59375 269.632812 137.632812 269.722656 137.667969 269.820312 C 138.324219 271.394531 139.132812 273.777344 139.488281 276.632812 C 140.128906 281.742188 139.601562 291.308594 128.914062 297.972656 C 124.59375 300.667969 120.519531 301.609375 116.925781 301.609375 C 109.398438 301.609375 104.003906 297.460938 102.976562 296.609375 C 101.859375 295.753906 95.722656 290.742188 93.066406 281.707031 C 91.40625 282.351562 89.671875 282.835938 87.878906 283.117188 C 86.238281 283.375 84.621094 283.503906 83.039062 283.503906 C 76.214844 283.503906 69.96875 281.132812 64.753906 276.523438 C 59.175781 271.59375 55.019531 264.214844 52.90625 255.789062 C 52.175781 256.042969 51.386719 256.273438 50.539062 256.460938 C 49.234375 256.753906 47.71875 256.957031 46.050781 256.957031 C 42.191406 256.957031 37.503906 255.855469 32.644531 252.15625 C 23.785156 245.417969 22.21875 236.390625 22.191406 230.949219 C 20.976562 230.566406 19.785156 230.0625 18.628906 229.4375 C 9.796875 224.636719 4.847656 213.988281 5.050781 200.214844 C 5.210938 189.347656 9.695312 179.59375 16.90625 173.265625 C 14 171.796875 11.316406 169.789062 8.972656 167.292969 C 3.65625 161.628906 0.65625 154.070312 0.519531 146.007812 C 0.289062 132.050781 7.386719 117.28125 23.773438 115.746094 C 24.09375 115.714844 24.414062 115.695312 24.730469 115.675781 C 24.671875 115.546875 24.609375 115.425781 24.554688 115.296875 C 22.671875 111.113281 21.679688 106.601562 21.601562 101.90625 C 21.460938 93.320312 24.421875 85.195312 29.941406 79.015625 C 35.460938 72.839844 42.882812 69.351562 50.832031 69.195312 C 51.222656 69.1875 51.613281 69.191406 52 69.199219 C 51.753906 67.625 51.621094 66.023438 51.589844 64.402344 C 51.449219 55.824219 54.410156 47.695312 59.929688 41.515625 C 65.453125 35.339844 72.871094 31.851562 80.820312 31.695312 C 81.367188 31.6875 81.917969 31.695312 82.464844 31.71875 C 82.5 25.21875 84.589844 18.902344 88.585938 13.476562 C 94.238281 5.796875 103.285156 0.730469 111.632812 0.570312 C 120.921875 0.382812 129.402344 3.761719 135.503906 10.078125 C 137.046875 11.679688 138.421875 13.441406 139.625 15.351562 C 143.527344 21.535156 145.636719 29.285156 145.785156 38.132812 C 145.976562 49.722656 142.777344 60.722656 136.773438 69.109375 C 133.761719 73.3125 130.222656 76.628906 126.335938 78.945312 C 135.792969 85.234375 142.0625 96.417969 142.273438 109.171875 C 142.429688 118.503906 139.910156 126.84375 134.988281 133.28125 C 134.34375 134.121094 133.6875 134.902344 133.015625 135.625 C 138.59375 137.15625 143.730469 140.234375 147.988281 144.660156 C 154.441406 151.382812 158.085938 160.414062 158.246094 170.097656 C 158.488281 184.355469 151.011719 197.257812 139.335938 203.363281 Z M 139.335938 203.363281 " fill-opacity="1" fill-rule="nonzero"/></g></g></g></g></g><g mask="url(#5b5c4c45e2)"><g transform="matrix(1, 0, 0, 1, 174, 20)"><g clip-path="url(#14155105bb)"><g clip-path="url(#26ef30c040)"><path fill="#333652" d="M 141.480469 82.457031 L 139.96875 166.585938 L 135.648438 167.859375 L 135 213.660156 L 90.699219 266.851562 L 73.832031 266.851562 L 74.050781 272.21875 L 25.640625 271.285156 L 24.769531 258.429688 L 14.398438 257.820312 L 12.667969 257.820312 C 12.625 257.722656 12.589844 257.632812 12.550781 257.542969 C 12.453125 257.316406 12.359375 257.105469 12.261719 256.898438 C 12.933594 256.074219 13.570312 255.203125 14.179688 254.285156 C 20.152344 245.320312 21.96875 234.382812 22.4375 226.789062 C 22.585938 224.417969 23.085938 211.964844 18.515625 199.777344 C 17.347656 196.667969 15.945312 193.863281 14.332031 191.363281 C 26.007812 185.261719 33.476562 172.355469 33.242188 158.097656 C 33.082031 148.414062 29.4375 139.382812 22.980469 132.660156 C 18.726562 128.234375 13.585938 125.15625 8.007812 123.625 C 8.683594 122.902344 9.335938 122.121094 9.980469 121.28125 C 14.90625 114.84375 17.425781 106.503906 17.269531 97.171875 C 17.058594 84.421875 10.789062 73.234375 1.332031 66.945312 C 5.21875 64.628906 8.757812 61.316406 11.765625 57.109375 C 17.769531 48.722656 20.96875 37.71875 20.777344 26.132812 C 20.628906 17.285156 18.519531 9.535156 14.617188 3.351562 L 17.445312 0.4375 L 76.25 0.4375 L 82.261719 6.792969 L 93.714844 9.300781 L 123.96875 42.871094 L 123.96875 79.933594 Z M 141.480469 82.457031 " fill-opacity="1" fill-rule="nonzero"/></g></g></g></g><path fill="#333652" d="M 214.3125 170.28125 C 212.425781 170.28125 210.800781 171.457031 210.015625 173.167969 L 180.800781 173.167969 C 180.019531 171.457031 178.394531 170.28125 176.507812 170.28125 C 173.863281 170.28125 171.714844 172.59375 171.714844 175.453125 C 171.714844 178.308594 173.859375 180.625 176.507812 180.625 C 178.394531 180.625 180.019531 179.445312 180.800781 177.734375 L 210.015625 177.734375 C 210.800781 179.445312 212.425781 180.625 214.3125 180.625 C 216.957031 180.625 219.101562 178.308594 219.101562 175.453125 C 219.101562 172.59375 216.957031 170.28125 214.3125 170.28125 Z M 214.3125 170.28125 " fill-opacity="1" fill-rule="nonzero"/><path fill="#333652" d="M 205.667969 254.507812 C 208.3125 254.507812 210.460938 252.191406 210.460938 249.335938 C 210.460938 246.480469 208.316406 244.164062 205.667969 244.164062 C 205.519531 244.164062 205.367188 244.171875 205.21875 244.1875 L 196.796875 232.511719 L 180.804688 232.511719 C 180.023438 230.804688 178.398438 229.625 176.511719 229.625 C 173.867188 229.625 171.71875 231.941406 171.71875 234.796875 C 171.71875 237.652344 173.863281 239.96875 176.511719 239.96875 C 178.398438 239.96875 180.023438 238.789062 180.804688 237.082031 L 194.730469 237.082031 L 201.605469 246.609375 C 201.148438 247.402344 200.878906 248.332031 200.878906 249.335938 C 200.878906 252.191406 203.023438 254.507812 205.671875 254.507812 Z M 205.667969 254.507812 " fill-opacity="1" fill-rule="nonzero"/><path fill="#333652" d="M 216.128906 232.480469 L 228.601562 232.480469 L 238.605469 243.273438 L 256.21875 243.273438 L 266.816406 231.835938 L 266.816406 226.160156 L 278.597656 226.160156 L 278.597656 195 L 259.824219 195 L 250.800781 204.738281 L 250.800781 207.699219 L 238.9375 207.699219 L 228.933594 218.492188 L 209.382812 218.492188 C 208.601562 216.785156 206.976562 215.605469 205.089844 215.605469 C 202.445312 215.605469 200.296875 217.921875 200.296875 220.777344 C 200.296875 223.632812 202.441406 225.949219 205.089844 225.949219 C 206.976562 225.949219 208.601562 224.769531 209.382812 223.0625 L 230.691406 223.0625 L 240.691406 212.265625 L 250.800781 212.265625 L 250.800781 226.160156 L 262.582031 226.160156 L 262.582031 229.941406 L 254.464844 238.703125 L 240.355469 238.703125 L 230.355469 227.910156 L 215.601562 227.910156 C 214.742188 226.515625 213.277344 225.597656 211.613281 225.597656 C 208.96875 225.597656 206.820312 227.914062 206.820312 230.769531 C 206.820312 233.625 208.964844 235.941406 211.613281 235.941406 C 213.703125 235.941406 215.476562 234.492188 216.128906 232.480469 Z M 255.035156 206.632812 L 261.582031 199.566406 L 274.363281 199.566406 L 274.363281 221.59375 L 255.035156 221.59375 Z M 255.035156 206.632812 " fill-opacity="1" fill-rule="nonzero"/><path fill="#333652" d="M 222.773438 195.5625 C 225.417969 195.5625 227.566406 193.246094 227.566406 190.390625 C 227.566406 187.535156 225.421875 185.21875 222.773438 185.21875 C 220.890625 185.21875 219.261719 186.398438 218.480469 188.105469 L 180.800781 188.105469 C 180.019531 186.398438 178.394531 185.21875 176.507812 185.21875 C 173.863281 185.21875 171.714844 187.535156 171.714844 190.390625 C 171.714844 193.246094 173.859375 195.5625 176.507812 195.5625 C 178.394531 195.5625 180.019531 194.382812 180.800781 192.675781 L 218.480469 192.675781 C 219.261719 194.382812 220.890625 195.5625 222.773438 195.5625 Z M 222.773438 195.5625 " fill-opacity="1" fill-rule="nonzero"/><path fill="#333652" d="M 177.453125 129.21875 L 195.976562 129.21875 C 196.757812 130.925781 198.382812 132.105469 200.269531 132.105469 C 202.914062 132.105469 205.0625 129.789062 205.0625 126.933594 C 205.0625 124.078125 202.917969 121.761719 200.269531 121.761719 C 198.382812 121.761719 196.757812 122.941406 195.976562 124.648438 L 177.453125 124.648438 C 176.671875 122.941406 175.042969 121.761719 173.160156 121.761719 C 170.515625 121.761719 168.367188 124.078125 168.367188 126.933594 C 168.367188 129.789062 170.511719 132.105469 173.160156 132.105469 C 175.042969 132.105469 176.671875 130.925781 177.453125 129.21875 Z M 177.453125 129.21875 " fill-opacity="1" fill-rule="nonzero"/><path fill="#333652" d="M 171.855469 67.394531 L 192.835938 67.394531 L 206.773438 48.007812 L 215.316406 48.007812 C 216.097656 49.714844 217.722656 50.894531 219.609375 50.894531 C 222.253906 50.894531 224.402344 48.578125 224.402344 45.722656 C 224.402344 42.867188 222.257812 40.550781 219.609375 40.550781 C 217.722656 40.550781 216.097656 41.730469 215.316406 43.4375 L 204.703125 43.4375 L 190.761719 62.824219 L 172.683594 62.824219 C 172.117188 60.652344 170.269531 59.054688 168.074219 59.054688 C 165.429688 59.054688 163.285156 61.371094 163.285156 64.226562 C 163.285156 67.085938 165.425781 69.402344 168.074219 69.402344 C 169.613281 69.402344 170.980469 68.613281 171.855469 67.394531 Z M 171.855469 67.394531 " fill-opacity="1" fill-rule="nonzero"/><path fill="#333652" d="M 289.3125 109.472656 L 306.632812 109.472656 L 306.632812 178.589844 L 289.3125 178.589844 Z M 289.3125 109.472656 " fill-opacity="1" fill-rule="nonzero"/><g clip-path="url(#5166c69bf6)"><path fill="#333652" d="M 320.71875 109.261719 L 320.71875 106.976562 L 325.480469 106.976562 L 325.480469 102.410156 L 320.71875 102.410156 L 320.71875 100.125 L 316.242188 100.125 L 316.242188 98.449219 L 300.089844 98.449219 L 300.089844 61.710938 L 268.703125 26.808594 L 257.691406 25.710938 L 251.316406 18.117188 L 190.089844 18.117188 L 178.121094 33.476562 L 173.148438 33.390625 C 172.484375 31.398438 170.722656 29.972656 168.648438 29.972656 C 166.003906 29.972656 163.855469 32.289062 163.855469 35.144531 C 163.855469 38.003906 166 40.320312 168.648438 40.320312 C 170.332031 40.320312 171.8125 39.378906 172.667969 37.953125 L 180.0625 38.082031 L 192.058594 22.6875 L 249.4375 22.6875 L 255.660156 30.101562 L 266.753906 31.203125 L 295.851562 63.566406 L 295.851562 98.453125 L 289.304688 98.453125 L 289.652344 68.082031 L 263.574219 39.21875 L 252.914062 39.21875 L 245.246094 28.515625 L 199.050781 28.515625 L 183.5625 48.105469 L 172.703125 48.105469 C 172.167969 45.878906 170.300781 44.234375 168.070312 44.234375 C 165.425781 44.234375 163.28125 46.550781 163.28125 49.40625 C 163.28125 52.261719 165.425781 54.578125 168.070312 54.578125 C 169.570312 54.578125 170.902344 53.835938 171.78125 52.679688 L 185.515625 52.679688 L 201.003906 33.085938 L 243.167969 33.085938 L 250.835938 43.789062 L 261.792969 43.789062 L 285.398438 69.917969 L 285.074219 98.457031 L 279.703125 98.457031 L 279.703125 100.132812 L 275.226562 100.132812 L 275.226562 102.414062 L 243.511719 102.414062 L 225.519531 82.992188 L 195.675781 82.992188 L 174.945312 105.371094 C 174.390625 105.132812 173.792969 104.996094 173.160156 104.996094 C 170.515625 104.996094 168.367188 107.3125 168.367188 110.167969 C 168.367188 113.027344 170.511719 115.339844 173.160156 115.339844 C 175.804688 115.339844 177.949219 113.027344 177.949219 110.167969 C 177.949219 109.6875 177.882812 109.226562 177.769531 108.785156 L 197.429688 87.566406 L 223.765625 87.566406 L 241.757812 106.988281 L 275.226562 106.988281 L 275.226562 109.269531 L 279.699219 109.269531 L 279.699219 115.707031 L 275.226562 115.707031 L 275.226562 117.992188 L 237.867188 117.992188 L 227.863281 107.199219 L 206.558594 107.199219 C 205.773438 105.488281 204.148438 104.308594 202.261719 104.308594 C 199.617188 104.308594 197.472656 106.625 197.472656 109.480469 C 197.472656 112.339844 199.617188 114.65625 202.261719 114.65625 C 204.148438 114.65625 205.773438 113.476562 206.558594 111.765625 L 226.109375 111.765625 L 236.109375 122.5625 L 275.222656 122.5625 L 275.222656 124.84375 L 279.695312 124.84375 L 279.695312 131.28125 L 275.222656 131.28125 L 275.222656 133.566406 L 232.222656 133.566406 L 222.21875 122.773438 L 216.894531 122.773438 C 216.113281 121.0625 214.484375 119.882812 212.597656 119.882812 C 209.953125 119.882812 207.808594 122.199219 207.808594 125.054688 C 207.808594 127.914062 209.953125 130.230469 212.597656 130.230469 C 214.484375 130.230469 216.113281 129.050781 216.894531 127.339844 L 220.464844 127.339844 L 230.464844 138.136719 L 275.222656 138.136719 L 275.222656 140.417969 L 279.695312 140.417969 L 279.695312 146.855469 L 275.222656 146.855469 L 275.222656 148.421875 L 224.882812 148.421875 L 224.882812 142.046875 L 221.675781 142.046875 L 221.675781 136.996094 L 217.441406 136.996094 L 217.441406 142.046875 L 214.488281 142.046875 L 214.488281 136.996094 L 210.253906 136.996094 L 210.253906 142.046875 L 208.039062 142.046875 L 208.039062 144.464844 L 203.535156 144.464844 L 203.535156 149.03125 L 208.039062 149.03125 L 208.039062 152.21875 L 203.535156 152.21875 L 203.535156 156.789062 L 208.039062 156.789062 L 208.039062 159.363281 L 210.253906 159.363281 L 210.253906 164.191406 L 214.488281 164.191406 L 214.488281 159.363281 L 217.441406 159.363281 L 217.441406 164.191406 L 221.675781 164.191406 L 221.675781 159.363281 L 224.882812 159.363281 L 224.882812 152.992188 L 275.222656 152.992188 L 275.222656 155.992188 L 279.695312 155.992188 L 279.695312 162.429688 L 275.222656 162.429688 L 275.222656 164.957031 L 246.269531 164.957031 L 236.269531 175.753906 L 232.695312 175.753906 C 231.914062 174.042969 230.289062 172.863281 228.402344 172.863281 C 225.757812 172.863281 223.609375 175.179688 223.609375 178.035156 C 223.609375 180.894531 225.753906 183.207031 228.402344 183.207031 C 230.289062 183.207031 231.914062 182.03125 232.695312 180.320312 L 238.023438 180.320312 L 248.023438 169.527344 L 275.226562 169.527344 L 275.226562 171.566406 L 279.699219 171.566406 L 279.699219 178.003906 L 275.226562 178.003906 L 275.226562 180.289062 L 253.246094 180.289062 L 232.324219 202.917969 L 218.601562 202.917969 C 217.820312 201.210938 216.195312 200.03125 214.308594 200.03125 C 211.664062 200.03125 209.515625 202.347656 209.515625 205.203125 C 209.515625 208.058594 211.660156 210.375 214.308594 210.375 C 216.195312 210.375 217.820312 209.195312 218.601562 207.488281 L 234.078125 207.488281 L 255 184.855469 L 275.222656 184.855469 L 275.222656 187.140625 L 279.695312 187.140625 L 279.695312 189.613281 L 285.027344 189.613281 L 285.027344 225.140625 L 266.378906 246.894531 L 256.578125 246.894531 L 252.941406 251.222656 L 235.316406 251.222656 L 224.457031 239.503906 L 221.859375 239.503906 C 221.109375 237.707031 219.4375 236.449219 217.492188 236.449219 C 214.847656 236.449219 212.699219 238.765625 212.699219 241.621094 C 212.699219 244.476562 214.84375 246.792969 217.492188 246.792969 C 219.3125 246.792969 220.898438 245.691406 221.710938 244.070312 L 222.699219 244.070312 L 233.558594 255.792969 L 254.816406 255.792969 L 258.453125 251.460938 L 268.226562 251.460938 L 289.257812 226.933594 L 289.257812 189.617188 L 295.847656 189.617188 L 295.847656 229.671875 L 255.824219 276.109375 L 250.238281 276.109375 L 250.238281 262.65625 L 247.558594 262.65625 L 247.558594 259.449219 L 243.324219 259.449219 L 243.324219 262.65625 L 238.769531 262.65625 L 238.769531 259.449219 L 234.535156 259.449219 L 234.535156 262.65625 L 229.984375 262.65625 L 229.984375 259.449219 L 225.75 259.449219 L 225.75 262.65625 L 221.195312 262.65625 L 221.195312 259.449219 L 216.960938 259.449219 L 216.960938 262.65625 L 212.40625 262.65625 L 212.40625 259.449219 L 208.175781 259.449219 L 208.175781 262.65625 L 203.621094 262.65625 L 203.621094 259.449219 L 199.386719 259.449219 L 199.386719 262.65625 L 197.152344 262.65625 L 197.152344 276.160156 L 190.234375 276.160156 L 180.339844 255.550781 C 180.925781 254.695312 181.277344 253.636719 181.277344 252.488281 C 181.277344 249.632812 179.132812 247.316406 176.484375 247.316406 C 173.835938 247.316406 171.691406 249.632812 171.691406 252.488281 C 171.691406 255.347656 173.835938 257.660156 176.484375 257.660156 C 176.515625 257.660156 176.550781 257.65625 176.582031 257.65625 L 187.660156 280.726562 L 197.152344 280.726562 L 197.152344 294.128906 L 199.382812 294.128906 L 199.382812 297.335938 L 203.617188 297.335938 L 203.617188 294.128906 L 208.171875 294.128906 L 208.171875 297.335938 L 212.40625 297.335938 L 212.40625 294.128906 L 216.957031 294.128906 L 216.957031 297.335938 L 221.191406 297.335938 L 221.191406 294.128906 L 225.746094 294.128906 L 225.746094 297.335938 L 229.980469 297.335938 L 229.980469 294.128906 L 234.535156 294.128906 L 234.535156 297.335938 L 238.765625 297.335938 L 238.765625 294.128906 L 243.320312 294.128906 L 243.320312 297.335938 L 247.554688 297.335938 L 247.554688 294.128906 L 250.238281 294.128906 L 250.238281 289.242188 L 264.507812 289.242188 L 311.257812 235.703125 L 311.257812 189.613281 L 316.230469 189.613281 L 316.230469 187.140625 L 320.703125 187.140625 L 320.703125 184.855469 L 325.464844 184.855469 L 325.464844 180.289062 L 320.703125 180.289062 L 320.703125 178.003906 L 316.230469 178.003906 L 316.230469 171.566406 L 320.703125 171.566406 L 320.703125 169.285156 L 325.464844 169.285156 L 325.464844 164.714844 L 320.703125 164.714844 L 320.703125 162.429688 L 316.230469 162.429688 L 316.230469 155.992188 L 320.703125 155.992188 L 320.703125 153.710938 L 325.464844 153.710938 L 325.464844 149.140625 L 320.703125 149.140625 L 320.703125 146.855469 L 316.230469 146.855469 L 316.230469 140.417969 L 320.703125 140.417969 L 320.703125 138.136719 L 325.464844 138.136719 L 325.464844 133.566406 L 320.703125 133.566406 L 320.703125 131.28125 L 316.230469 131.28125 L 316.230469 124.84375 L 320.703125 124.84375 L 320.703125 122.5625 L 325.464844 122.5625 L 325.464844 117.992188 L 320.703125 117.992188 L 320.703125 115.707031 L 316.230469 115.707031 L 316.230469 109.269531 L 320.703125 109.269531 Z M 220.652344 154.792969 L 212.277344 154.792969 L 212.277344 146.613281 L 220.652344 146.613281 Z M 227.054688 276.300781 C 227.832031 277.824219 229.335938 278.859375 231.0625 278.859375 C 233.589844 278.859375 235.636719 276.648438 235.636719 273.921875 C 235.636719 271.191406 233.585938 268.984375 231.0625 268.984375 C 229.265625 268.984375 227.710938 270.105469 226.964844 271.730469 L 209.203125 271.730469 L 205.484375 276.160156 L 201.40625 276.160156 L 201.40625 267.226562 L 246.019531 267.226562 L 246.019531 276.109375 L 242.699219 276.109375 L 237.828125 281.914062 L 219.40625 281.914062 C 218.828125 279.90625 217.089844 278.445312 215.039062 278.445312 C 212.511719 278.445312 210.464844 280.65625 210.464844 283.382812 C 210.464844 286.109375 212.511719 288.320312 215.039062 288.320312 C 216.476562 288.320312 217.757812 287.601562 218.597656 286.484375 L 239.707031 286.484375 L 244.578125 280.679688 L 246.019531 280.679688 L 246.019531 289.5625 L 201.40625 289.5625 L 201.40625 280.730469 L 207.359375 280.730469 L 211.078125 276.300781 Z M 307.039062 233.890625 L 262.699219 284.671875 L 250.253906 284.671875 L 250.253906 280.671875 L 257.683594 280.671875 L 300.09375 231.460938 L 300.09375 189.613281 L 307.042969 189.613281 L 307.042969 233.886719 Z M 312.011719 185.046875 L 283.933594 185.046875 L 283.933594 103.019531 L 312.011719 103.019531 Z M 312.011719 185.046875 " fill-opacity="1" fill-rule="nonzero"/></g><path fill="#333652" d="M 264.699219 203.347656 C 260.652344 203.347656 257.359375 206.902344 257.359375 211.269531 C 257.359375 215.636719 260.652344 219.1875 264.699219 219.1875 C 268.742188 219.1875 272.035156 215.636719 272.035156 211.269531 C 272.035156 206.902344 268.742188 203.347656 264.699219 203.347656 Z M 264.699219 214.617188 C 262.984375 214.617188 261.59375 213.113281 261.59375 211.269531 C 261.59375 209.421875 262.984375 207.917969 264.699219 207.917969 C 266.410156 207.917969 267.800781 209.421875 267.800781 211.269531 C 267.800781 213.113281 266.410156 214.617188 264.699219 214.617188 Z M 264.699219 214.617188 " fill-opacity="1" fill-rule="nonzero"/><path fill="#333652" d="M 253.113281 47.398438 L 235.5 47.398438 L 225.496094 58.195312 L 216.128906 58.195312 C 215.472656 56.179688 213.703125 54.730469 211.613281 54.730469 C 208.96875 54.730469 206.820312 57.046875 206.820312 59.902344 C 206.820312 62.761719 208.964844 65.074219 211.613281 65.074219 C 213.277344 65.074219 214.742188 64.15625 215.601562 62.761719 L 227.25 62.761719 L 237.253906 51.96875 L 251.363281 51.96875 L 259.480469 60.730469 L 259.480469 64.511719 L 247.699219 64.511719 L 247.699219 78.40625 L 237.585938 78.40625 L 227.585938 67.613281 L 209.382812 67.613281 C 208.601562 65.902344 206.976562 64.722656 205.089844 64.722656 C 202.445312 64.722656 200.296875 67.039062 200.296875 69.894531 C 200.296875 72.753906 202.441406 75.066406 205.089844 75.066406 C 206.976562 75.066406 208.601562 73.890625 209.382812 72.179688 L 225.832031 72.179688 L 235.832031 82.972656 L 247.699219 82.972656 L 247.699219 85.933594 L 256.722656 95.675781 L 275.496094 95.675781 L 275.496094 71.753906 L 268.785156 64.511719 L 263.710938 64.511719 L 263.710938 58.839844 L 253.117188 47.398438 Z M 271.261719 73.648438 L 271.261719 91.109375 L 258.476562 91.109375 L 251.929688 84.042969 L 251.929688 69.082031 L 267.03125 69.082031 Z M 271.261719 73.648438 " fill-opacity="1" fill-rule="nonzero"/><path fill="#333652" d="M 261.59375 87.328125 C 265.640625 87.328125 268.929688 83.773438 268.929688 79.410156 C 268.929688 75.046875 265.640625 71.488281 261.59375 71.488281 C 257.550781 71.488281 254.257812 75.042969 254.257812 79.410156 C 254.257812 83.777344 257.550781 87.328125 261.59375 87.328125 Z M 261.59375 76.058594 C 263.304688 76.058594 264.699219 77.5625 264.699219 79.40625 C 264.699219 81.253906 263.304688 82.757812 261.59375 82.757812 C 259.882812 82.757812 258.492188 81.253906 258.492188 79.40625 C 258.492188 77.5625 259.882812 76.058594 261.59375 76.058594 Z M 261.59375 76.058594 " fill-opacity="1" fill-rule="nonzero"/><path fill="#fad02c" d="M 116.667969 145.34375 C 116.667969 146.734375 115.621094 147.863281 114.332031 147.863281 C 113.046875 147.863281 111.996094 146.734375 111.996094 145.34375 C 111.996094 143.949219 113.042969 142.816406 114.332031 142.816406 C 115.625 142.816406 116.667969 143.949219 116.667969 145.34375 Z M 116.667969 145.34375 " fill-opacity="1" fill-rule="nonzero"/><path fill="#fad02c" d="M 89.621094 106.34375 C 89.621094 107.738281 88.574219 108.871094 87.28125 108.871094 C 85.992188 108.871094 84.945312 107.738281 84.945312 106.34375 C 84.945312 104.953125 85.992188 103.824219 87.28125 103.824219 C 88.570312 103.824219 89.621094 104.953125 89.621094 106.34375 Z M 89.621094 106.34375 " fill-opacity="1" fill-rule="nonzero"/><path fill="#fad02c" d="M 109.761719 98.785156 C 109.761719 100.179688 108.714844 101.308594 107.425781 101.308594 C 106.140625 101.308594 105.089844 100.179688 105.089844 98.785156 C 105.089844 97.390625 106.136719 96.261719 107.425781 96.261719 C 108.71875 96.261719 109.761719 97.390625 109.761719 98.785156 Z M 109.761719 98.785156 " fill-opacity="1" fill-rule="nonzero"/><path fill="#fad02c" d="M 112.027344 167.191406 C 111.703125 168.539062 110.421875 169.347656 109.171875 168.996094 C 107.921875 168.644531 107.175781 167.269531 107.5 165.917969 C 107.824219 164.570312 109.105469 163.761719 110.355469 164.109375 C 111.601562 164.464844 112.351562 165.84375 112.027344 167.191406 Z M 112.027344 167.191406 " fill-opacity="1" fill-rule="nonzero"/><path fill="#fad02c" d="M 76.714844 144.34375 C 76.386719 145.691406 75.109375 146.5 73.859375 146.148438 C 72.609375 145.796875 71.863281 144.421875 72.183594 143.070312 C 72.511719 141.722656 73.792969 140.914062 75.039062 141.261719 C 76.289062 141.617188 77.039062 142.996094 76.714844 144.34375 Z M 76.714844 144.34375 " fill-opacity="1" fill-rule="nonzero"/><path fill="#fad02c" d="M 143.972656 156.375 C 143.972656 156.707031 143.910156 157.03125 143.792969 157.339844 C 143.675781 157.648438 143.503906 157.921875 143.285156 158.160156 C 143.066406 158.394531 142.8125 158.578125 142.527344 158.707031 C 142.242188 158.835938 141.941406 158.898438 141.632812 158.898438 C 141.320312 158.898438 141.023438 158.835938 140.738281 158.707031 C 140.449219 158.578125 140.199219 158.394531 139.980469 158.160156 C 139.757812 157.921875 139.589844 157.648438 139.472656 157.339844 C 139.351562 157.03125 139.292969 156.707031 139.292969 156.375 C 139.292969 156.039062 139.351562 155.71875 139.472656 155.40625 C 139.589844 155.097656 139.757812 154.824219 139.980469 154.589844 C 140.199219 154.351562 140.449219 154.167969 140.738281 154.042969 C 141.023438 153.914062 141.320312 153.847656 141.632812 153.847656 C 141.941406 153.847656 142.242188 153.914062 142.527344 154.042969 C 142.8125 154.167969 143.066406 154.351562 143.285156 154.589844 C 143.503906 154.824219 143.675781 155.097656 143.792969 155.40625 C 143.910156 155.71875 143.972656 156.039062 143.972656 156.375 Z M 143.972656 156.375 " fill-opacity="1" fill-rule="nonzero"/><path fill="#fad02c" d="M 110.070312 214.730469 C 110.070312 216.125 109.023438 217.253906 107.734375 217.253906 C 106.449219 217.253906 105.398438 216.125 105.398438 214.730469 C 105.398438 213.335938 106.445312 212.203125 107.734375 212.203125 C 109.027344 212.203125 110.070312 213.335938 110.070312 214.730469 Z M 110.070312 214.730469 " fill-opacity="1" fill-rule="nonzero"/><path fill="#fad02c" d="M 99.800781 198.074219 C 99.800781 199.46875 98.753906 200.601562 97.464844 200.601562 C 96.179688 200.601562 95.128906 199.46875 95.128906 198.074219 C 95.128906 196.683594 96.175781 195.550781 97.464844 195.550781 C 98.757812 195.550781 99.800781 196.683594 99.800781 198.074219 Z M 99.800781 198.074219 " fill-opacity="1" fill-rule="nonzero"/><path fill="#fad02c" d="M 82.410156 201.628906 C 82.410156 201.960938 82.351562 202.285156 82.230469 202.59375 C 82.113281 202.902344 81.945312 203.175781 81.726562 203.414062 C 81.503906 203.648438 81.253906 203.832031 80.964844 203.960938 C 80.679688 204.089844 80.382812 204.152344 80.070312 204.152344 C 79.761719 204.152344 79.460938 204.089844 79.175781 203.960938 C 78.890625 203.832031 78.636719 203.648438 78.417969 203.414062 C 78.199219 203.175781 78.027344 202.902344 77.910156 202.59375 C 77.792969 202.285156 77.734375 201.960938 77.734375 201.628906 C 77.734375 201.292969 77.792969 200.972656 77.910156 200.660156 C 78.027344 200.351562 78.199219 200.078125 78.417969 199.84375 C 78.636719 199.605469 78.890625 199.421875 79.175781 199.296875 C 79.460938 199.167969 79.761719 199.101562 80.070312 199.101562 C 80.382812 199.101562 80.679688 199.167969 80.964844 199.296875 C 81.253906 199.421875 81.503906 199.605469 81.726562 199.84375 C 81.945312 200.078125 82.113281 200.351562 82.230469 200.660156 C 82.351562 200.972656 82.410156 201.292969 82.410156 201.628906 Z M 82.410156 201.628906 " fill-opacity="1" fill-rule="nonzero"/><path fill="#fad02c" d="M 73.261719 161.730469 C 73.261719 163.125 72.214844 164.253906 70.925781 164.253906 C 69.636719 164.253906 68.585938 163.125 68.585938 161.730469 C 68.585938 160.335938 69.636719 159.203125 70.925781 159.203125 C 72.214844 159.203125 73.261719 160.335938 73.261719 161.730469 Z M 73.261719 161.730469 " fill-opacity="1" fill-rule="nonzero"/><path fill="#fad02c" d="M 82.410156 219.777344 C 82.410156 221.167969 81.363281 222.300781 80.070312 222.300781 C 78.78125 222.300781 77.734375 221.167969 77.734375 219.777344 C 77.734375 218.382812 78.78125 217.253906 80.070312 217.253906 C 81.363281 217.253906 82.410156 218.382812 82.410156 219.777344 Z M 82.410156 219.777344 " fill-opacity="1" fill-rule="nonzero"/><path fill="#fad02c" d="M 122.34375 236.898438 C 121.054688 236.898438 120.007812 238.027344 120.007812 239.421875 C 120.007812 240.816406 121.054688 241.949219 122.34375 241.949219 C 123.636719 241.949219 124.683594 240.816406 124.683594 239.421875 C 124.683594 238.027344 123.636719 236.898438 122.34375 236.898438 Z M 122.34375 236.898438 " fill-opacity="1" fill-rule="nonzero"/><path fill="#fad02c" d="M 142.109375 267.453125 C 142.109375 266.058594 141.058594 264.925781 139.769531 264.925781 C 138.476562 264.925781 137.429688 266.058594 137.429688 267.453125 C 137.429688 268.84375 138.476562 269.976562 139.769531 269.976562 C 141.058594 269.976562 142.109375 268.84375 142.109375 267.453125 Z M 142.109375 267.453125 " fill-opacity="1" fill-rule="nonzero"/><path fill="#fad02c" d="M 122.34375 263.308594 C 121.054688 263.308594 120.007812 264.4375 120.007812 265.832031 C 120.007812 267.226562 121.054688 268.355469 122.34375 268.355469 C 123.636719 268.355469 124.683594 267.226562 124.683594 265.832031 C 124.683594 264.4375 123.636719 263.308594 122.34375 263.308594 Z M 122.34375 263.308594 " fill-opacity="1" fill-rule="nonzero"/><path fill="#fad02c" d="M 137.957031 228.535156 C 137.957031 228.871094 137.898438 229.191406 137.777344 229.5 C 137.660156 229.808594 137.492188 230.082031 137.273438 230.320312 C 137.054688 230.554688 136.800781 230.738281 136.511719 230.867188 C 136.226562 230.996094 135.929688 231.058594 135.617188 231.058594 C 135.308594 231.058594 135.011719 230.996094 134.722656 230.867188 C 134.4375 230.738281 134.183594 230.554688 133.964844 230.320312 C 133.746094 230.082031 133.578125 229.808594 133.457031 229.5 C 133.339844 229.191406 133.28125 228.871094 133.28125 228.535156 C 133.28125 228.199219 133.339844 227.878906 133.457031 227.566406 C 133.578125 227.257812 133.746094 226.984375 133.964844 226.75 C 134.183594 226.511719 134.4375 226.332031 134.722656 226.203125 C 135.011719 226.074219 135.308594 226.011719 135.617188 226.011719 C 135.929688 226.011719 136.226562 226.074219 136.511719 226.203125 C 136.800781 226.332031 137.054688 226.511719 137.273438 226.75 C 137.492188 226.984375 137.660156 227.257812 137.777344 227.566406 C 137.898438 227.878906 137.957031 228.199219 137.957031 228.535156 Z M 137.957031 228.535156 " fill-opacity="1" fill-rule="nonzero"/><path fill="#fad02c" d="M 166.292969 268.351562 C 166.292969 269.746094 167.339844 270.878906 168.628906 270.878906 C 169.921875 270.878906 170.96875 269.746094 170.96875 268.351562 C 170.96875 266.960938 169.921875 265.828125 168.628906 265.828125 C 167.339844 265.828125 166.292969 266.960938 166.292969 268.351562 Z M 166.292969 268.351562 " fill-opacity="1" fill-rule="nonzero"/><path fill="#fad02c" d="M 160.339844 246.800781 C 160.339844 248.195312 161.386719 249.328125 162.675781 249.328125 C 163.96875 249.328125 165.015625 248.195312 165.015625 246.800781 C 165.015625 245.40625 163.96875 244.277344 162.675781 244.277344 C 161.386719 244.277344 160.339844 245.40625 160.339844 246.800781 Z M 160.339844 246.800781 " fill-opacity="1" fill-rule="nonzero"/><path fill="#fad02c" d="M 146.90625 187.855469 C 145.613281 187.855469 144.566406 188.988281 144.566406 190.382812 C 144.566406 191.777344 145.613281 192.90625 146.90625 192.90625 C 148.195312 192.90625 149.242188 191.777344 149.242188 190.382812 C 149.242188 188.988281 148.195312 187.855469 146.90625 187.855469 Z M 146.90625 187.855469 " fill-opacity="1" fill-rule="nonzero"/><path fill="#fad02c" d="M 151.578125 212.5 C 152.871094 212.5 153.917969 211.367188 153.917969 209.976562 C 153.917969 208.582031 152.871094 207.449219 151.578125 207.449219 C 150.289062 207.449219 149.242188 208.582031 149.242188 209.976562 C 149.242188 211.367188 150.289062 212.5 151.578125 212.5 Z M 151.578125 212.5 " fill-opacity="1" fill-rule="nonzero"/><path fill="#fad02c" d="M 126.042969 195.554688 C 126.042969 196.949219 127.089844 198.078125 128.382812 198.078125 C 129.671875 198.078125 130.722656 196.949219 130.722656 195.554688 C 130.722656 194.160156 129.671875 193.03125 128.382812 193.03125 C 127.089844 193.03125 126.042969 194.160156 126.042969 195.554688 Z M 126.042969 195.554688 " fill-opacity="1" fill-rule="nonzero"/><path fill="#fad02c" d="M 164.023438 161.609375 C 164.023438 163.003906 165.074219 164.132812 166.363281 164.132812 C 167.652344 164.132812 168.703125 163.003906 168.703125 161.609375 C 168.703125 160.214844 167.652344 159.085938 166.363281 159.085938 C 165.074219 159.085938 164.023438 160.214844 164.023438 161.609375 Z M 164.023438 161.609375 " fill-opacity="1" fill-rule="nonzero"/><path fill="#fad02c" d="M 136.390625 126.921875 C 136.390625 127.257812 136.332031 127.578125 136.214844 127.890625 C 136.09375 128.199219 135.925781 128.472656 135.707031 128.707031 C 135.488281 128.945312 135.234375 129.128906 134.949219 129.253906 C 134.660156 129.382812 134.363281 129.449219 134.054688 129.449219 C 133.742188 129.449219 133.445312 129.382812 133.15625 129.253906 C 132.871094 129.128906 132.617188 128.945312 132.398438 128.707031 C 132.179688 128.472656 132.011719 128.199219 131.890625 127.890625 C 131.773438 127.578125 131.714844 127.257812 131.714844 126.921875 C 131.714844 126.589844 131.773438 126.265625 131.890625 125.957031 C 132.011719 125.648438 132.179688 125.375 132.398438 125.136719 C 132.617188 124.902344 132.871094 124.71875 133.15625 124.589844 C 133.445312 124.460938 133.742188 124.398438 134.054688 124.398438 C 134.363281 124.398438 134.660156 124.460938 134.949219 124.589844 C 135.234375 124.71875 135.488281 124.902344 135.707031 125.136719 C 135.925781 125.375 136.09375 125.648438 136.214844 125.957031 C 136.332031 126.265625 136.390625 126.589844 136.390625 126.921875 Z M 136.390625 126.921875 " fill-opacity="1" fill-rule="nonzero"/><path fill="#fad02c" d="M 122.796875 65.390625 C 122.796875 66.785156 123.84375 67.914062 125.132812 67.914062 C 126.425781 67.914062 127.472656 66.785156 127.472656 65.390625 C 127.472656 63.996094 126.425781 62.867188 125.132812 62.867188 C 123.84375 62.867188 122.796875 63.996094 122.796875 65.390625 Z M 122.796875 65.390625 " fill-opacity="1" fill-rule="nonzero"/><path fill="#fad02c" d="M 150.140625 35.058594 C 150.140625 36.453125 151.191406 37.585938 152.480469 37.585938 C 153.773438 37.585938 154.820312 36.453125 154.820312 35.058594 C 154.820312 33.667969 153.773438 32.535156 152.480469 32.535156 C 151.191406 32.535156 150.140625 33.667969 150.140625 35.058594 Z M 150.140625 35.058594 " fill-opacity="1" fill-rule="nonzero"/><path fill="#fad02c" d="M 135.007812 78.191406 C 135.007812 79.585938 136.054688 80.714844 137.34375 80.714844 C 138.636719 80.714844 139.683594 79.585938 139.683594 78.191406 C 139.683594 76.796875 138.636719 75.667969 137.34375 75.667969 C 136.054688 75.667969 135.007812 76.796875 135.007812 78.191406 Z M 135.007812 78.191406 " fill-opacity="1" fill-rule="nonzero"/><path fill="#fad02c" d="M 152.480469 72.410156 C 152.480469 73.804688 153.527344 74.9375 154.820312 74.9375 C 156.109375 74.9375 157.15625 73.804688 157.15625 72.410156 C 157.15625 71.019531 156.109375 69.886719 154.820312 69.886719 C 153.527344 69.886719 152.480469 71.019531 152.480469 72.410156 Z M 152.480469 72.410156 " fill-opacity="1" fill-rule="nonzero"/><path fill="#fad02c" d="M 146.847656 103.824219 C 146.847656 104.160156 146.789062 104.480469 146.667969 104.789062 C 146.550781 105.097656 146.382812 105.371094 146.164062 105.609375 C 145.941406 105.84375 145.691406 106.027344 145.402344 106.15625 C 145.117188 106.285156 144.820312 106.347656 144.507812 106.347656 C 144.199219 106.347656 143.902344 106.285156 143.613281 106.15625 C 143.328125 106.027344 143.074219 105.84375 142.855469 105.609375 C 142.636719 105.371094 142.46875 105.097656 142.347656 104.789062 C 142.230469 104.480469 142.171875 104.160156 142.171875 103.824219 C 142.171875 103.488281 142.230469 103.167969 142.347656 102.855469 C 142.46875 102.546875 142.636719 102.273438 142.855469 102.039062 C 143.074219 101.800781 143.328125 101.617188 143.613281 101.492188 C 143.902344 101.363281 144.199219 101.300781 144.507812 101.300781 C 144.820312 101.300781 145.117188 101.363281 145.402344 101.492188 C 145.691406 101.617188 145.941406 101.800781 146.164062 102.039062 C 146.382812 102.273438 146.550781 102.546875 146.667969 102.855469 C 146.789062 103.167969 146.847656 103.488281 146.847656 103.824219 Z M 146.847656 103.824219 " fill-opacity="1" fill-rule="nonzero"/><path fill="#fad02c" d="M 160.136719 121.167969 C 160.136719 122.5625 161.183594 123.691406 162.476562 123.691406 C 163.765625 123.691406 164.816406 122.5625 164.816406 121.167969 C 164.816406 119.773438 163.765625 118.640625 162.476562 118.640625 C 161.183594 118.640625 160.136719 119.773438 160.136719 121.167969 Z M 160.136719 121.167969 " fill-opacity="1" fill-rule="nonzero"/><path fill="#fad02c" d="M 167.152344 102.457031 C 167.152344 102.792969 167.09375 103.113281 166.976562 103.425781 C 166.855469 103.734375 166.6875 104.007812 166.46875 104.242188 C 166.25 104.480469 165.996094 104.664062 165.710938 104.789062 C 165.421875 104.917969 165.125 104.984375 164.816406 104.984375 C 164.503906 104.984375 164.207031 104.917969 163.917969 104.789062 C 163.632812 104.664062 163.378906 104.480469 163.160156 104.242188 C 162.941406 104.007812 162.773438 103.734375 162.652344 103.425781 C 162.535156 103.113281 162.476562 102.792969 162.476562 102.457031 C 162.476562 102.125 162.535156 101.800781 162.652344 101.492188 C 162.773438 101.183594 162.941406 100.910156 163.160156 100.671875 C 163.378906 100.4375 163.632812 100.253906 163.917969 100.125 C 164.207031 99.996094 164.503906 99.933594 164.816406 99.933594 C 165.125 99.933594 165.421875 99.996094 165.710938 100.125 C 165.996094 100.253906 166.25 100.4375 166.46875 100.671875 C 166.6875 100.910156 166.855469 101.183594 166.976562 101.492188 C 167.09375 101.800781 167.152344 102.125 167.152344 102.457031 Z M 167.152344 102.457031 " fill-opacity="1" fill-rule="nonzero"/><path fill="#fad02c" d="M 98.40625 247.308594 C 98.40625 247.644531 98.347656 247.964844 98.230469 248.273438 C 98.109375 248.585938 97.941406 248.855469 97.722656 249.09375 C 97.503906 249.332031 97.25 249.511719 96.964844 249.640625 C 96.675781 249.769531 96.378906 249.832031 96.070312 249.832031 C 95.757812 249.832031 95.460938 249.769531 95.175781 249.640625 C 94.886719 249.511719 94.632812 249.332031 94.414062 249.09375 C 94.195312 248.855469 94.027344 248.585938 93.910156 248.273438 C 93.789062 247.964844 93.730469 247.644531 93.730469 247.308594 C 93.730469 246.972656 93.789062 246.652344 93.910156 246.34375 C 94.027344 246.035156 94.195312 245.761719 94.414062 245.523438 C 94.632812 245.285156 94.886719 245.105469 95.175781 244.976562 C 95.460938 244.847656 95.757812 244.785156 96.070312 244.785156 C 96.378906 244.785156 96.675781 244.847656 96.964844 244.976562 C 97.25 245.105469 97.503906 245.285156 97.722656 245.523438 C 97.941406 245.761719 98.109375 246.035156 98.230469 246.34375 C 98.347656 246.652344 98.40625 246.972656 98.40625 247.308594 Z M 98.40625 247.308594 " fill-opacity="1" fill-rule="nonzero"/><path fill="#fad02c" d="M 198.945312 179.257812 C 198.898438 181.785156 198.53125 184.246094 197.875 186.582031 L 206.621094 186.582031 C 207.109375 184.207031 207.382812 181.757812 207.414062 179.257812 Z M 198.945312 179.257812 " fill-opacity="1" fill-rule="nonzero"/><path fill="#fad02c" d="M 184.15625 141.257812 C 186.527344 138.160156 188.332031 134.617188 189.558594 130.738281 L 180.417969 130.738281 C 176.53125 139.226562 169.363281 142.40625 167.144531 143.207031 C 166.734375 143.296875 166.324219 143.394531 165.914062 143.5 C 165.753906 143.542969 165.601562 143.59375 165.449219 143.652344 C 162.167969 144.230469 157.261719 143.671875 154 140.527344 C 150.804688 137.441406 149.824219 132.425781 151.09375 125.617188 C 151.554688 123.144531 150.066406 120.734375 147.777344 120.238281 C 145.484375 119.742188 143.253906 121.34375 142.792969 123.816406 C 140.425781 136.535156 144.515625 143.628906 148.363281 147.339844 C 152.582031 151.410156 158.082031 153.011719 162.996094 153.011719 C 165.265625 153.011719 167.402344 152.671875 169.234375 152.074219 C 170.597656 151.800781 171.988281 151.652344 173.390625 151.621094 C 180.097656 151.492188 186.449219 154.1875 191.277344 159.214844 C 194.597656 162.671875 196.917969 166.949219 198.085938 171.640625 L 206.777344 171.640625 C 205.464844 164.433594 202.152344 157.84375 197.152344 152.636719 C 192.902344 148.203125 187.757812 145.128906 182.183594 143.597656 C 182.851562 142.871094 183.511719 142.089844 184.15625 141.25 Z M 184.15625 141.257812 " fill-opacity="1" fill-rule="nonzero"/><path fill="#fad02c" d="M 186.25 42.359375 L 193.222656 33.539062 C 192.566406 31.152344 191.726562 28.894531 190.703125 26.789062 L 184.625 34.589844 C 185.417969 36.976562 185.960938 39.578125 186.25 42.363281 Z M 186.25 42.359375 " fill-opacity="1" fill-rule="nonzero"/><path fill="#fad02c" d="M 191.15625 123.128906 C 191.375 121.191406 191.476562 119.195312 191.445312 117.152344 C 191.34375 111.144531 189.894531 105.488281 187.40625 100.527344 L 181.0625 107.375 C 182.242188 110.445312 182.921875 113.800781 182.980469 117.3125 C 183.015625 119.410156 182.886719 121.339844 182.625 123.125 L 191.15625 123.125 Z M 191.15625 123.128906 " fill-opacity="1" fill-rule="nonzero"/><g clip-path="url(#5bb5ee4aac)"><path fill="#fad02c" d="M 204.210938 194.199219 L 194.464844 194.199219 C 191.570312 198.707031 187.40625 202.261719 182.386719 204.222656 C 178.347656 200.730469 173.542969 198.453125 168.054688 197.472656 C 167.199219 188.871094 163.617188 180.9375 157.777344 174.855469 C 151.1875 167.996094 142.515625 164.328125 133.359375 164.492188 C 131.492188 164.527344 129.40625 164.785156 127.253906 165.304688 C 129.59375 159.058594 131.03125 152.289062 130.9375 146.644531 C 130.816406 139.566406 128.90625 132.839844 125.386719 126.984375 C 128.3125 122.195312 130.003906 116.632812 130.261719 110.878906 C 139.511719 94.175781 146.875 92.558594 152.828125 91.246094 C 154.316406 90.917969 155.859375 90.730469 157.417969 90.703125 C 157.871094 90.695312 158.300781 90.699219 158.699219 90.714844 L 158.777344 90.714844 C 159.234375 90.730469 159.6875 90.765625 160.136719 90.808594 C 160.167969 90.8125 160.203125 90.8125 160.238281 90.816406 C 167.167969 91.515625 173.214844 95.199219 177.328125 100.640625 L 183.34375 94.152344 C 181.097656 91.335938 178.460938 88.890625 175.507812 86.929688 C 179.394531 84.609375 182.933594 81.300781 185.941406 77.089844 C 187.738281 74.582031 189.277344 71.84375 190.554688 68.917969 L 180.914062 68.917969 C 180.390625 69.8125 179.835938 70.675781 179.242188 71.5 C 174.628906 77.953125 168.488281 81.574219 161.964844 81.703125 C 161.570312 81.710938 161.183594 81.707031 160.824219 81.691406 C 160.726562 81.683594 160.632812 81.679688 160.539062 81.679688 C 160.03125 81.636719 159.519531 81.601562 159.011719 81.582031 L 158.933594 81.582031 C 158.402344 81.5625 157.84375 81.558594 157.265625 81.570312 C 155.1875 81.613281 153.117188 81.859375 151.128906 82.296875 C 144.042969 83.859375 136.515625 86.453125 128.316406 97.742188 C 128.191406 97.390625 128.058594 97.03125 127.917969 96.683594 C 124.625 88.367188 118.121094 81.878906 110.261719 78.933594 C 109.609375 76.78125 109.261719 74.53125 109.222656 72.222656 C 109.117188 66.082031 111.238281 60.265625 115.191406 55.84375 C 119.140625 51.421875 124.449219 48.929688 130.140625 48.816406 C 131.160156 48.796875 132.179688 48.855469 133.183594 48.992188 C 138.964844 49.765625 144.261719 53.136719 147.726562 58.234375 C 149.109375 60.269531 151.757812 60.710938 153.644531 59.21875 C 155.527344 57.730469 155.933594 54.871094 154.554688 52.835938 C 150.929688 47.496094 145.859375 43.519531 140.148438 41.402344 C 139.671875 35.109375 142.097656 30.25 144.378906 27.148438 C 148.527344 21.519531 155.035156 17.808594 160.957031 17.691406 C 168.09375 17.546875 174.273438 19.960938 178.808594 24.660156 C 179.617188 25.496094 180.359375 26.40625 181.042969 27.371094 L 186.589844 20.253906 C 185.980469 19.496094 185.34375 18.765625 184.671875 18.066406 C 178.574219 11.742188 170.089844 8.363281 160.804688 8.542969 C 152.457031 8.707031 143.410156 13.773438 137.753906 21.449219 C 133.757812 26.875 131.667969 33.1875 131.632812 39.691406 C 131.085938 39.671875 130.539062 39.660156 129.988281 39.671875 C 122.039062 39.828125 114.621094 43.316406 109.097656 49.492188 C 103.578125 55.671875 100.617188 63.796875 100.761719 72.378906 C 100.785156 74 100.921875 75.601562 101.167969 77.175781 C 100.78125 77.167969 100.390625 77.164062 100 77.171875 C 92.050781 77.324219 84.632812 80.816406 79.109375 86.992188 C 73.589844 93.171875 70.628906 101.300781 70.769531 109.882812 C 70.851562 114.582031 71.84375 119.085938 73.722656 123.269531 C 73.78125 123.402344 73.839844 123.523438 73.898438 123.652344 C 73.582031 123.671875 73.261719 123.695312 72.941406 123.722656 C 56.558594 125.257812 49.457031 140.03125 49.691406 153.984375 C 49.824219 162.046875 52.828125 169.609375 58.140625 175.269531 C 60.488281 177.773438 63.171875 179.78125 66.074219 181.246094 C 58.859375 187.574219 54.378906 197.328125 54.222656 208.199219 C 54.019531 221.96875 58.96875 232.617188 67.800781 237.414062 C 68.953125 238.039062 70.148438 238.546875 71.363281 238.929688 C 71.386719 244.371094 72.957031 253.398438 81.8125 260.136719 C 86.675781 263.835938 91.367188 264.933594 95.222656 264.933594 C 96.890625 264.933594 98.40625 264.730469 99.710938 264.441406 C 100.554688 264.25 101.34375 264.019531 102.074219 263.769531 C 104.191406 272.191406 108.34375 279.570312 113.921875 284.503906 C 119.140625 289.109375 125.386719 291.480469 132.207031 291.480469 C 133.792969 291.480469 135.410156 291.351562 137.050781 291.097656 C 138.84375 290.8125 140.574219 290.332031 142.234375 289.6875 C 144.890625 298.722656 151.027344 303.730469 152.148438 304.589844 C 153.175781 305.4375 158.570312 309.589844 166.097656 309.589844 C 169.6875 309.589844 173.761719 308.644531 178.085938 305.949219 C 188.769531 299.285156 189.292969 289.71875 188.660156 284.609375 C 188.554688 283.777344 188.40625 282.992188 188.242188 282.246094 L 186.828125 282.246094 L 180.839844 269.777344 C 177.195312 274.824219 171.765625 278.632812 163.660156 278.792969 C 161.324219 278.839844 159.464844 280.921875 159.507812 283.445312 C 159.546875 285.9375 161.433594 287.929688 163.738281 287.929688 L 163.816406 287.929688 C 169.753906 287.8125 175.097656 286.171875 179.679688 283.113281 C 180.234375 284.9375 180.648438 287.363281 180.167969 289.820312 C 179.535156 293.054688 177.410156 295.816406 173.855469 298.039062 C 165.007812 303.554688 157.8125 297.761719 157.328125 297.359375 C 157.203125 297.242188 157.179688 297.222656 157.035156 297.121094 C 156.78125 296.9375 151.359375 292.832031 149.863281 285.09375 C 155.761719 280.027344 159.511719 272.449219 159.421875 264.386719 C 159.351562 258.65625 156.546875 250.964844 150.417969 246.699219 C 146.167969 243.738281 138.746094 241.328125 127.496094 246.636719 C 125.355469 247.648438 124.378906 250.339844 125.3125 252.652344 C 126.25 254.96875 128.746094 256.023438 130.886719 255.011719 C 135.195312 252.976562 141.289062 251.214844 145.832031 254.382812 C 149.535156 256.960938 150.925781 261.851562 150.957031 264.507812 C 151.0625 273.003906 144.417969 280.710938 135.835938 282.058594 C 129.460938 283.058594 123.894531 281.503906 119.292969 277.433594 C 113.363281 272.199219 109.523438 263.113281 109.023438 253.125 C 108.511719 242.941406 110.625 233.613281 115.304688 225.410156 C 118.808594 219.261719 122.542969 216.042969 122.640625 215.960938 C 122.738281 215.878906 122.828125 215.792969 122.914062 215.707031 C 127.1875 216.921875 131.644531 216.5625 135.394531 214.519531 C 140.371094 211.808594 143.253906 206.542969 143.296875 200.074219 C 143.3125 197.550781 141.433594 195.492188 139.09375 195.472656 L 139.0625 195.472656 C 136.742188 195.472656 134.84375 197.496094 134.828125 200.003906 C 134.808594 203.058594 133.714844 205.199219 131.578125 206.363281 C 128.605469 207.984375 124.253906 207.324219 120.996094 204.765625 C 118.351562 202.691406 114.148438 197.59375 115.699219 186.78125 C 116.035156 184.441406 116.9375 182.453125 118.1875 180.789062 C 118.722656 180.246094 119.257812 179.652344 119.777344 179.015625 C 123.683594 175.3125 129.480469 173.710938 133.511719 173.632812 C 140.40625 173.5 146.9375 176.269531 151.898438 181.441406 C 156.859375 186.609375 159.664062 193.550781 159.785156 200.992188 C 159.941406 210.332031 155.78125 219.089844 148.65625 224.421875 C 146.734375 225.859375 146.257812 228.703125 147.589844 230.777344 C 148.410156 232.0625 149.726562 232.746094 151.070312 232.746094 C 151.898438 232.746094 152.742188 232.480469 153.476562 231.933594 C 161.410156 226 166.570312 216.863281 167.90625 206.75 C 175.738281 208.578125 181.421875 214.097656 184.835938 223.191406 C 185.820312 225.8125 186.519531 228.464844 187.019531 230.996094 L 195.652344 230.996094 C 195.050781 227.4375 194.117188 223.589844 192.683594 219.765625 C 191.515625 216.652344 190.117188 213.847656 188.5 211.347656 C 195.503906 207.6875 200.988281 201.585938 204.207031 194.207031 Z M 100.570312 253.613281 C 100.585938 253.953125 100.609375 254.292969 100.632812 254.628906 C 97.832031 255.867188 92.519531 257.101562 86.691406 252.671875 C 81.257812 248.535156 80.015625 243.148438 79.84375 239.683594 C 83.378906 239.21875 86.785156 237.777344 89.664062 235.398438 C 96.261719 229.933594 98.898438 220.808594 96.902344 210.367188 C 96.425781 207.898438 94.1875 206.304688 91.898438 206.816406 C 89.613281 207.328125 88.136719 209.746094 88.613281 212.214844 C 89.949219 219.199219 88.496094 224.851562 84.511719 228.148438 C 80.914062 231.128906 75.851562 231.558594 71.605469 229.253906 C 65.789062 226.097656 62.539062 218.46875 62.6875 208.339844 C 62.855469 196.824219 69.476562 187.019531 79.15625 183.9375 C 81.125 183.308594 83.179688 182.972656 85.261719 182.929688 L 85.449219 182.929688 C 85.582031 182.925781 85.714844 182.921875 85.84375 182.925781 C 85.925781 182.929688 86.007812 182.929688 86.089844 182.929688 L 86.394531 182.929688 C 89.890625 182.957031 99.183594 183.027344 106.125 191.5625 C 106.371094 191.863281 106.644531 192.121094 106.941406 192.332031 C 107.195312 200.132812 109.960938 206.761719 114.910156 211.214844 C 109.894531 216.625 99.421875 230.765625 100.570312 253.617188 Z M 113.871094 172.421875 C 111.46875 174.761719 109.496094 177.683594 108.304688 181.253906 C 99.660156 173.894531 89.972656 173.816406 86.453125 173.792969 L 86.050781 173.792969 C 86.050781 173.792969 86.03125 173.785156 86.023438 173.785156 C 85.804688 173.785156 85.585938 173.785156 85.371094 173.789062 C 85.28125 173.789062 85.199219 173.789062 85.101562 173.792969 C 82.5 173.839844 79.925781 174.238281 77.441406 174.964844 C 66.945312 174.585938 58.34375 165.222656 58.152344 153.820312 C 58.003906 144.820312 61.980469 133.917969 73.671875 132.820312 C 76.34375 132.574219 78.738281 132.792969 80.835938 133.359375 C 81.578125 133.957031 82.457031 134.257812 83.335938 134.257812 C 87.449219 136.148438 89.988281 139.535156 90.605469 143.074219 C 91.410156 147.707031 88.886719 151.417969 83.855469 153.007812 C 81.609375 153.714844 80.324219 156.25 80.980469 158.671875 C 81.640625 161.09375 83.988281 162.484375 86.234375 161.773438 C 96.867188 158.421875 100.269531 149.121094 98.929688 141.390625 C 97.753906 134.621094 92.898438 128.140625 85.164062 125.214844 C 85.117188 125.164062 85.070312 125.109375 85.027344 125.058594 C 85.011719 125.042969 84.996094 125.023438 84.976562 125.003906 C 84.84375 124.851562 84.707031 124.691406 84.570312 124.523438 C 83.277344 122.945312 82.1875 121.1875 81.34375 119.292969 C 80.003906 116.300781 79.289062 113.078125 79.234375 109.71875 C 79.136719 103.574219 81.253906 97.753906 85.207031 93.332031 C 89.15625 88.910156 94.464844 86.417969 100.15625 86.304688 C 102.121094 86.265625 104.078125 86.515625 105.964844 87.050781 C 112.269531 88.839844 117.566406 93.777344 120.140625 100.269531 C 121.222656 102.988281 121.792969 105.886719 121.84375 108.886719 C 121.90625 112.628906 121.121094 116.296875 119.59375 119.589844 C 115.78125 115.835938 111.257812 113.050781 106.269531 111.421875 C 104.027344 110.691406 101.667969 112.054688 100.992188 114.472656 C 100.3125 116.886719 101.582031 119.433594 103.820312 120.167969 C 108.980469 121.851562 113.484375 125.167969 116.84375 129.769531 C 116.851562 129.773438 116.851562 129.78125 116.859375 129.789062 C 120.429688 134.675781 122.371094 140.5625 122.472656 146.804688 C 122.605469 154.628906 118.554688 166.335938 113.871094 172.417969 Z M 113.871094 172.421875 " fill-opacity="1" fill-rule="nonzero"/></g><path fill="#fad02c" d="M 185.96875 54.195312 C 185.601562 56.652344 185.046875 59.03125 184.308594 61.304688 L 190.070312 61.304688 L 194.378906 55.3125 C 194.808594 52.3125 195.003906 49.230469 194.953125 46.109375 C 194.9375 45.140625 194.894531 44.183594 194.828125 43.238281 L 186.167969 54.195312 Z M 185.96875 54.195312 " fill-opacity="1" fill-rule="nonzero"/><path fill="#fad02c" d="M 194.035156 238.605469 L 188.046875 238.605469 C 188.347656 242.644531 188.203125 245.5625 188.167969 246.160156 C 187.96875 249.363281 187.285156 255.644531 184.972656 261.851562 L 189.804688 271.90625 C 194.625 263.4375 196.179688 253.710938 196.609375 246.769531 C 196.652344 246.070312 196.726562 244.484375 196.691406 242.289062 Z M 194.035156 238.605469 " fill-opacity="1" fill-rule="nonzero"/><g fill="#333652" fill-opacity="1"><g transform="translate(84.183739, 351.374977)"><g><path d="M 16.234375 -23.609375 C 16.234375 -26.996094 14.398438 -28.792969 11.015625 -28.792969 L 2.375 -28.792969 C 2.015625 -28.792969 1.800781 -28.613281 1.800781 -28.21875 L 1.800781 -0.574219 C 1.800781 -0.214844 2.015625 0 2.375 0 L 11.015625 0 C 14.398438 0 16.234375 -1.800781 16.234375 -5.183594 L 16.234375 -11.804688 C 16.234375 -13.136719 15.261719 -14.144531 13.964844 -14.359375 L 13.964844 -14.433594 C 15.261719 -14.648438 16.234375 -15.65625 16.234375 -16.988281 Z M 11.445312 -18.175781 C 11.445312 -17.277344 10.941406 -16.773438 10.007812 -16.773438 L 6.730469 -16.773438 L 6.730469 -24.042969 L 10.007812 -24.042969 C 10.976562 -24.042969 11.445312 -23.539062 11.445312 -22.601562 Z M 11.445312 -6.191406 C 11.445312 -5.21875 10.941406 -4.75 10.007812 -4.75 L 6.730469 -4.75 L 6.730469 -12.023438 L 10.007812 -12.023438 C 10.976562 -12.023438 11.445312 -11.519531 11.445312 -10.582031 Z M 11.445312 -6.191406 "/></g></g></g><g fill="#333652" fill-opacity="1"><g transform="translate(106.89384, 351.374977)"><g><path d="M 16.59375 -23.609375 C 16.59375 -26.996094 14.792969 -28.792969 11.410156 -28.792969 L 2.375 -28.792969 C 2.015625 -28.792969 1.800781 -28.578125 1.800781 -28.21875 L 1.800781 -0.574219 C 1.800781 -0.214844 2.015625 0 2.375 0 L 6.117188 0 C 6.480469 0 6.695312 -0.214844 6.695312 -0.574219 L 6.695312 -9.644531 L 9.179688 -9.644531 L 11.589844 -0.503906 C 11.660156 -0.179688 11.839844 0 12.203125 0 L 15.945312 0 C 16.339844 0 16.554688 -0.214844 16.449219 -0.648438 L 13.964844 -10.078125 C 15.691406 -10.832031 16.59375 -12.417969 16.59375 -14.828125 Z M 6.695312 -14.398438 L 6.695312 -24.042969 L 10.257812 -24.042969 C 11.195312 -24.042969 11.699219 -23.539062 11.699219 -22.601562 L 11.699219 -15.835938 C 11.699219 -14.902344 11.195312 -14.398438 10.257812 -14.398438 Z M 6.695312 -14.398438 "/></g></g></g><g fill="#333652" fill-opacity="1"><g transform="translate(129.963822, 351.374977)"><g><path d="M 19.148438 0 C 19.578125 0 19.722656 -0.214844 19.652344 -0.613281 L 13.675781 -28.289062 C 13.605469 -28.648438 13.390625 -28.792969 13.066406 -28.792969 L 8.0625 -28.792969 C 7.738281 -28.792969 7.523438 -28.648438 7.449219 -28.289062 L 1.476562 -0.613281 C 1.367188 -0.214844 1.546875 0 1.945312 0 L 5.792969 0 C 6.117188 0 6.296875 -0.179688 6.371094 -0.503906 L 7.34375 -5.757812 L 13.75 -5.757812 L 14.757812 -0.503906 C 14.828125 -0.179688 15.007812 0 15.332031 0 Z M 12.847656 -9.933594 L 8.242188 -9.933594 L 10.546875 -22.496094 Z M 12.847656 -9.933594 "/></g></g></g><g fill="#333652" fill-opacity="1"><g transform="translate(155.732928, 351.374977)"><g><path d="M 2.375 -28.792969 C 1.980469 -28.792969 1.800781 -28.578125 1.800781 -28.21875 L 1.800781 -0.574219 C 1.800781 -0.214844 1.980469 0 2.375 0 L 6.117188 0 C 6.480469 0 6.695312 -0.214844 6.695312 -0.574219 L 6.695312 -28.21875 C 6.695312 -28.578125 6.480469 -28.792969 6.117188 -28.792969 Z M 2.375 -28.792969 "/></g></g></g><g fill="#333652" fill-opacity="1"><g transform="translate(168.906141, 351.374977)"><g><path d="M 12.847656 -28.792969 C 12.453125 -28.792969 12.273438 -28.578125 12.273438 -28.21875 L 12.273438 -13.027344 L 12.058594 -13.027344 L 6.585938 -28.324219 C 6.480469 -28.648438 6.261719 -28.792969 5.9375 -28.792969 L 2.375 -28.792969 C 2.015625 -28.792969 1.800781 -28.578125 1.800781 -28.21875 L 1.800781 -0.574219 C 1.800781 -0.214844 2.015625 0 2.375 0 L 6.117188 0 C 6.515625 0 6.695312 -0.214844 6.695312 -0.574219 L 6.695312 -15.835938 L 6.875 -15.835938 L 12.382812 -0.46875 C 12.488281 -0.144531 12.707031 0 13.027344 0 L 16.59375 0 C 16.953125 0 17.167969 -0.214844 17.167969 -0.574219 L 17.167969 -28.21875 C 17.167969 -28.578125 16.953125 -28.792969 16.59375 -28.792969 Z M 12.847656 -28.792969 "/></g></g></g><g fill="#333652" fill-opacity="1"><g transform="translate(192.551945, 351.374977)"><g/></g></g><g fill="#333652" fill-opacity="1"><g transform="translate(206.228995, 351.374977)"><g><path d="M 1.65625 -28.792969 C 1.296875 -28.792969 1.078125 -28.578125 1.078125 -28.21875 L 1.078125 -24.617188 C 1.078125 -24.257812 1.296875 -24.042969 1.65625 -24.042969 L 5.832031 -24.042969 L 5.832031 -0.574219 C 5.832031 -0.179688 6.046875 0 6.40625 0 L 10.148438 0 C 10.546875 0 10.726562 -0.179688 10.726562 -0.574219 L 10.726562 -24.042969 L 14.902344 -24.042969 C 15.296875 -24.042969 15.476562 -24.257812 15.476562 -24.617188 L 15.476562 -28.21875 C 15.476562 -28.578125 15.296875 -28.792969 14.902344 -28.792969 Z M 1.65625 -28.792969 "/></g></g></g><g fill="#333652" fill-opacity="1"><g transform="translate(227.463575, 351.374977)"><g><path d="M 16.160156 -28.21875 C 16.160156 -28.578125 16.015625 -28.792969 15.585938 -28.792969 L 2.339844 -28.792969 C 2.015625 -28.792969 1.800781 -28.578125 1.800781 -28.21875 L 1.800781 -0.574219 C 1.800781 -0.214844 2.015625 0 2.339844 0 L 15.585938 0 C 16.015625 0 16.160156 -0.214844 16.160156 -0.574219 L 16.160156 -4.175781 C 16.160156 -4.570312 16.015625 -4.75 15.585938 -4.75 L 6.585938 -4.75 L 6.585938 -12.023438 L 13.460938 -12.023438 C 13.820312 -12.023438 14.035156 -12.238281 14.035156 -12.632812 L 14.035156 -16.195312 C 14.035156 -16.59375 13.820312 -16.808594 13.460938 -16.808594 L 6.585938 -16.808594 L 6.585938 -24.007812 L 15.585938 -24.007812 C 16.015625 -24.007812 16.160156 -24.257812 16.160156 -24.617188 Z M 16.160156 -28.21875 "/></g></g></g><g fill="#333652" fill-opacity="1"><g transform="translate(250.101704, 351.374977)"><g><path d="M 16.234375 -23.609375 C 16.234375 -26.996094 14.398438 -28.792969 11.050781 -28.792969 L 7.019531 -28.792969 C 3.636719 -28.792969 1.800781 -26.996094 1.800781 -23.609375 L 1.800781 -5.183594 C 1.800781 -1.800781 3.636719 0 7.019531 0 L 11.050781 0 C 14.398438 0 16.234375 -1.800781 16.234375 -5.183594 L 16.234375 -9.070312 C 16.234375 -9.429688 16.015625 -9.644531 15.65625 -9.644531 L 12.058594 -9.644531 C 11.660156 -9.644531 11.480469 -9.429688 11.480469 -9.070312 L 11.480469 -6.191406 C 11.480469 -5.21875 10.976562 -4.75 10.042969 -4.75 L 8.171875 -4.75 C 7.234375 -4.75 6.730469 -5.21875 6.730469 -6.191406 L 6.730469 -22.601562 C 6.730469 -23.539062 7.199219 -24.042969 8.171875 -24.042969 L 10.042969 -24.042969 C 10.976562 -24.042969 11.480469 -23.539062 11.480469 -22.601562 L 11.480469 -19.722656 C 11.480469 -19.363281 11.660156 -19.148438 12.058594 -19.148438 L 15.65625 -19.148438 C 16.015625 -19.148438 16.234375 -19.363281 16.234375 -19.722656 Z M 16.234375 -23.609375 "/></g></g></g><g fill="#333652" fill-opacity="1"><g transform="translate(272.811805, 351.374977)"><g><path d="M 11.300781 -16.773438 L 6.695312 -16.773438 L 6.695312 -28.21875 C 6.695312 -28.578125 6.480469 -28.792969 6.117188 -28.792969 L 2.410156 -28.792969 C 1.980469 -28.792969 1.800781 -28.578125 1.800781 -28.21875 L 1.800781 -0.574219 C 1.800781 -0.214844 1.980469 0 2.410156 0 L 6.117188 0 C 6.480469 0 6.695312 -0.214844 6.695312 -0.574219 L 6.695312 -12.023438 L 11.300781 -12.023438 L 11.300781 -0.574219 C 11.300781 -0.214844 11.519531 0 11.878906 0 L 15.585938 0 C 16.015625 0 16.195312 -0.214844 16.195312 -0.574219 L 16.195312 -28.21875 C 16.195312 -28.578125 16.015625 -28.792969 15.585938 -28.792969 L 11.878906 -28.792969 C 11.519531 -28.792969 11.300781 -28.578125 11.300781 -28.21875 Z M 11.300781 -16.773438 "/></g></g></g></svg>